<?xml version="1.0" encoding="UTF-8"?>
<svg id="Horizontaal" xmlns="http://www.w3.org/2000/svg" viewBox="0 0 712.09 292.97">
  <defs>
    <style>
      .cls-1 {
        fill: #34b8e6;
      }

      .cls-2 {
        fill: #23b8df;
      }
    </style>
  </defs>
  <g id="Logo">
    <path id="Borstel_bolvorm" data-name="Borstel bolvorm" class="cls-1" d="M158.54,137.33c-18.93,0-36.72,16.34-36.72,35.27h73.43c0-18.93-17.79-35.27-36.72-35.27Z"/>
    <rect id="Borstelsteel" class="cls-1" x="152.1" y="89.59" width="14.31" height="43.47"/>
    <g id="Borstel">
      <path class="cls-2" d="M196.45,177.12s4.3,16.48,8.6,24.04c4.52,7.95,9.36,16.37,16.44,19.39l-12.52,8.03s-9.02-5.56-14.98-16.13-11.13-24.32-11.13-24.32c0,0-.16,15.74,4.29,23.84,3.31,6.02,11.97,19.61,11.97,19.61l-15.07,4.79s-6.28-9.54-10.25-19.31c-3.97-9.77-5.97-25.03-5.97-25.03,0,0-.33,15.35,0,24.6s2.23,20.86,2.23,20.86h-25.03s3.89-14.78,4.69-21.85c.79-7.07.08-23.34.08-23.34,0,0-1.11,12.22-4.77,21.52-3.6,9.17-10.17,21.93-10.17,21.93l-14.66-4s6.31-9.03,9.73-18.57,5.17-26.07,5.17-26.07c0,0-4.69,15.1-10.49,22.73-5.8,7.63-15.34,18.36-15.34,18.36l-12.4-7.31s15.11-13.91,18.12-20.9,6.83-22.85,6.83-22.85h74.62Z"/>
    </g>
    <path id="Zon_Rechts" data-name="Zon Rechts" class="cls-1" d="M116.42,174.87c.98-17.65,12.85-35.48,31.06-40.74v-44.25c-26.28,5.44-46.03,28.72-46.03,56.61,0,13.62,4.73,26.12,12.61,36,1.15-3.62,2.05-6.58,2.37-7.62Z"/>
    <path id="Zon_Links" data-name="Zon Links" class="cls-1" d="M200.65,174.46h.08s1.07,4.08,2.77,9.19c8.46-10.05,13.56-23.01,13.56-37.17,0-27.89-19.75-51.17-46.03-56.61v44.49c18.27,5.49,28.62,22.82,29.62,40.09Z"/>
    <g id="Straaltjes">
      <path id="Straaltje" class="cls-1" d="M158.54,30.78c-3.52,0-7.87,37.29-7.87,40.53,0,4.35,3.52,7.87,7.87,7.87s7.87-3.52,7.87-7.87c0-4.08-4.41-40.53-7.87-40.53Z"/>
      <path id="Straaltje-2" data-name="Straaltje" class="cls-1" d="M114.32,39.86c-3.25,1.35,7,37.46,8.24,40.46,1.66,4.01,6.27,5.92,10.28,4.26,4.01-1.66,5.92-6.27,4.26-10.28-1.56-3.77-19.58-35.76-22.78-34.43Z"/>
      <path id="Straaltje-3" data-name="Straaltje" class="cls-1" d="M76.93,65.17c-2.49,2.49,20.81,31.93,23.1,34.22,3.07,3.07,8.05,3.07,11.13,0,3.07-3.07,3.07-8.05,0-11.13-2.88-2.88-31.78-25.54-34.22-23.1Z"/>
      <path id="Straaltje-4" data-name="Straaltje" class="cls-1" d="M52.08,102.86c-1.35,3.25,31.44,21.54,34.43,22.78,4.01,1.66,8.62-.24,10.28-4.26,1.66-4.01-.24-8.62-4.26-10.28-3.77-1.56-39.13-11.44-40.46-8.24Z"/>
      <path id="Straaltje-5" data-name="Straaltje" class="cls-1" d="M43.54,147.2c0,3.52,37.29,7.87,40.53,7.87,4.35,0,7.87-3.52,7.87-7.87,0-4.35-3.52-7.87-7.87-7.87-4.08,0-40.53,4.41-40.53,7.87Z"/>
      <path id="Straaltje-6" data-name="Straaltje" class="cls-1" d="M52.62,191.42c1.35,3.25,37.46-7,40.46-8.24,4.01-1.66,5.92-6.27,4.26-10.28s-6.27-5.92-10.28-4.26c-3.77,1.56-35.76,19.58-34.43,22.78Z"/>
      <path id="Straaltje-7" data-name="Straaltje" class="cls-1" d="M266.43,190.11c1.35-3.25-31.44-21.54-34.43-22.78-4.01-1.66-8.62.24-10.28,4.26s.24,8.62,4.26,10.28c3.77,1.56,39.13,11.44,40.46,8.24Z"/>
      <path id="Straaltje-8" data-name="Straaltje" class="cls-1" d="M274.96,145.78c0-3.52-37.29-7.87-40.53-7.87-4.35,0-7.87,3.52-7.87,7.87s3.52,7.87,7.87,7.87c4.08,0,40.53-4.41,40.53-7.87Z"/>
      <path id="Straaltje-9" data-name="Straaltje" class="cls-1" d="M265.88,101.55c-1.35-3.25-37.46,7-40.46,8.24-4.01,1.66-5.92,6.27-4.26,10.28s6.27,5.92,10.28,4.26c3.77-1.56,35.76-19.58,34.43-22.78Z"/>
      <path id="Straaltje-10" data-name="Straaltje" class="cls-1" d="M240.57,64.17c-2.49-2.49-31.93,20.81-34.22,23.1-3.07,3.07-3.07,8.05,0,11.13,3.07,3.07,8.05,3.07,11.13,0,2.88-2.88,25.54-31.78,23.1-34.22Z"/>
      <path id="Straaltje-11" data-name="Straaltje" class="cls-1" d="M202.88,39.31c-3.25-1.35-21.54,31.44-22.78,34.43-1.66,4.01.24,8.62,4.26,10.28,4.01,1.66,8.62-.24,10.28-4.26,1.56-3.77,11.44-39.13,8.24-40.46Z"/>
      <path class="cls-1" d="M89.96,222.38s16.79-15.45,20.14-23.22c.58-1.35,1.19-3.01,1.8-4.81-3.09-2.82-7.88-2.75-10.86.24-2.88,2.88-25.54,31.78-23.1,34.22.99.99,6.2-2.08,12.28-6.28l-.26-.15Z"/>
      <path class="cls-1" d="M117.82,234.97c-2.19,9.25-3.75,18.04-2.19,18.69,1.65.68,7.15-7.39,12.34-15.92l-10.15-2.77Z"/>
      <path class="cls-1" d="M154.33,240.83c1.58,10.52,3.75,21.37,5.64,21.37s4.04-10.86,5.61-21.37h-11.24Z"/>
      <path class="cls-1" d="M192.23,237.87c5.09,8.28,10.37,15.9,11.96,15.24,1.55-.64.02-9.24-2.14-18.36l-9.82,3.12Z"/>
      <path class="cls-2" d="M218.48,193.58c-3.07-3.07-8.05-3.07-11.13,0-.2.2-.39.42-.57.64,1.03,2.39,2.15,4.58,3.36,6.26,3.21,4.48,6.14,9.76,9.53,14.1,9.23,6.97,20.43,14.71,21.91,13.23,2.49-2.49-20.81-31.93-23.1-34.22Z"/>
    </g>
    <g>
      <path class="cls-2" d="M316.63,190.41v-41.92c0-.5.18-.91.53-1.25.35-.33.8-.52,1.34-.56h11.42c4.16,0,7.51.97,10.04,2.9,2.54,1.93,3.81,5.13,3.81,9.58,0,6.86-3.1,10.92-9.3,12.17l9.23,17.53c.17.29.25.58.25.87,0,.67-.33,1.28-1,1.84-.67.56-1.37.84-2.12.84-.87,0-1.66-.69-2.37-2.06l-9.42-18.28h-7.17v18.34c0,.58-.26,1.04-.78,1.37-.52.33-1.13.5-1.84.5s-1.32-.17-1.84-.5c-.52-.33-.78-.79-.78-1.37ZM321.87,167.71h8.05c5.74,0,8.61-2.72,8.61-8.17s-2.87-8.11-8.61-8.11h-8.05v16.28Z"/>
      <path class="cls-2" d="M347.13,190.1c0-.08.04-.25.12-.5l12.77-41.47c.37-1.21,1.43-1.82,3.18-1.82s2.81.61,3.18,1.83l12.81,41.63c0,.08,0,.16.03.23.02.08.03.14.03.17,0,.55-.34,1.04-1.03,1.46-.69.43-1.42.64-2.21.64-1,0-1.62-.39-1.87-1.18l-2.75-9.24h-16.51l-2.74,9.21c-.25.81-.88,1.21-1.9,1.21-.73,0-1.44-.21-2.11-.62-.67-.42-1.01-.94-1.01-1.56ZM356.19,177.5h13.92l-6.94-23.5-6.98,23.5Z"/>
      <path class="cls-2" d="M377.64,148.86c0-.62.34-1.14,1.03-1.56.69-.42,1.38-.62,2.09-.62.75,0,1.37.46,1.87,1.37l10.98,21.4,10.92-21.4c.5-.92,1.12-1.37,1.87-1.37s1.46.21,2.12.62c.67.42,1,.94,1,1.56,0,.33-.08.69-.25,1.06l-12.91,24.08c-.08.12-.12.33-.12.62v15.78c0,.58-.26,1.04-.78,1.37-.52.33-1.13.5-1.84.5s-1.32-.17-1.84-.5c-.52-.33-.78-.79-.78-1.37v-15.78c0-.21-.06-.42-.19-.62l-12.91-24.08c-.17-.37-.25-.73-.25-1.06Z"/>
      <path class="cls-2" d="M413.83,179.06v-18.78c0-4.66,1.24-8.09,3.71-10.29,2.47-2.2,5.71-3.31,9.7-3.31s7.34,1.03,9.79,3.09c2.45,2.06,3.68,4.65,3.68,7.77,0,1.12-.21,1.88-.62,2.28-.42.4-1.08.59-2,.59-1.66,0-2.54-.6-2.62-1.81-.25-4.78-2.95-7.17-8.11-7.17-5.53,0-8.3,2.95-8.3,8.86v18.78c0,5.91,2.83,8.86,8.48,8.86,1.62,0,2.97-.23,4.05-.69,1.08-.46,1.88-1.12,2.4-2,.52-.87.86-1.62,1.03-2.25.17-.62.31-1.46.44-2.5.12-1.21,1-1.81,2.62-1.81.92,0,1.58.21,2,.62.42.42.62,1.19.62,2.31,0,3.16-1.24,5.79-3.71,7.89-2.47,2.1-5.75,3.15-9.83,3.15s-7.17-1.1-9.64-3.31c-2.48-2.2-3.71-5.64-3.71-10.29Z"/>
      <path class="cls-2" d="M447.39,190.41v-41.92c0-.58.26-1.03.78-1.34.52-.31,1.13-.47,1.84-.47s1.32.16,1.84.47c.52.31.78.76.78,1.34v39.05h17.03c.54,0,.96.24,1.25.72.29.48.44,1.03.44,1.65s-.15,1.17-.44,1.65c-.29.48-.71.72-1.25.72h-19.9c-.62,0-1.17-.17-1.65-.5-.48-.33-.72-.79-.72-1.37Z"/>
      <path class="cls-2" d="M476.59,190.41v-41.86c0-.58.24-1.04.72-1.37.48-.33,1.03-.5,1.65-.5h22.21c.58,0,1.03.23,1.34.69.31.46.47,1,.47,1.62,0,.67-.17,1.24-.5,1.72-.33.48-.77.72-1.31.72h-19.34v15.85h9.73c.54,0,.98.22,1.31.66s.5.97.5,1.59c0,.54-.16,1.03-.47,1.47-.31.44-.76.66-1.34.66h-9.73v15.91h19.34c.54,0,.98.24,1.31.72.33.48.5,1.05.5,1.72,0,.62-.16,1.16-.47,1.62-.31.46-.76.69-1.34.69h-22.21c-.62,0-1.17-.17-1.65-.5-.48-.33-.72-.79-.72-1.37Z"/>
      <path class="cls-2" d="M505.28,190.1c0-.08.04-.25.12-.5l12.77-41.47c.37-1.21,1.43-1.82,3.18-1.82s2.81.61,3.18,1.83l12.81,41.63c0,.08,0,.16.03.23.02.08.03.14.03.17,0,.55-.34,1.04-1.03,1.46-.69.43-1.42.64-2.21.64-1,0-1.62-.39-1.87-1.18l-2.75-9.24h-16.51l-2.74,9.21c-.25.81-.88,1.21-1.9,1.21-.73,0-1.44-.21-2.11-.62-.67-.42-1.01-.94-1.01-1.56ZM514.34,177.5h13.92l-6.94-23.5-6.98,23.5Z"/>
      <path class="cls-2" d="M542.96,190.41v-41.92c0-1.21.87-1.81,2.62-1.81.87,0,1.61.26,2.21.78.6.52,1.19,1.36,1.78,2.53l15.53,30.38v-31.88c0-.58.26-1.03.78-1.34.52-.31,1.13-.47,1.84-.47s1.32.16,1.84.47c.52.31.78.76.78,1.34v41.92c0,.58-.26,1.04-.78,1.37-.52.33-1.13.5-1.84.5-1.33,0-2.43-.79-3.31-2.37l-16.22-31.38v31.88c0,.58-.26,1.04-.78,1.37-.52.33-1.13.5-1.84.5s-1.32-.17-1.84-.5c-.52-.33-.78-.79-.78-1.37Z"/>
      <path class="cls-2" d="M591.25,179.06v-18.78c0-4.66,1.24-8.09,3.71-10.29,2.47-2.2,5.71-3.31,9.7-3.31s7.34,1.03,9.79,3.09c2.45,2.06,3.68,4.65,3.68,7.77,0,1.12-.21,1.88-.62,2.28-.42.4-1.08.59-2,.59-1.66,0-2.54-.6-2.62-1.81-.25-4.78-2.95-7.17-8.11-7.17-5.53,0-8.3,2.95-8.3,8.86v18.78c0,5.91,2.83,8.86,8.48,8.86,1.62,0,2.97-.23,4.05-.69,1.08-.46,1.88-1.12,2.4-2,.52-.87.86-1.62,1.03-2.25.17-.62.31-1.46.44-2.5.12-1.21,1-1.81,2.62-1.81.92,0,1.58.21,2,.62.42.42.62,1.19.62,2.31,0,3.16-1.24,5.79-3.71,7.89-2.47,2.1-5.75,3.15-9.83,3.15s-7.17-1.1-9.64-3.31c-2.48-2.2-3.71-5.64-3.71-10.29Z"/>
      <path class="cls-2" d="M622.69,189.73c0-.83.31-1.53.94-2.12s1.39-.88,2.31-.88,1.62.29,2.25.88c.62.58.94,1.29.94,2.12s-.31,1.48-.94,2.06c-.62.58-1.37.88-2.25.88-.92,0-1.68-.29-2.31-.88-.62-.58-.94-1.27-.94-2.06Z"/>
      <path class="cls-2" d="M629.49,148.86c0-.62.34-1.14,1.03-1.56.69-.42,1.4-.62,2.15-.62,1.04,0,1.68.4,1.93,1.19l10.98,37.06,10.92-37.06c.29-.79.9-1.19,1.84-1.19.78,0,1.5.23,2.18.68.67.45,1.01.97,1.01,1.54,0,.04-.01.1-.03.19-.02.08-.03.17-.03.25l-12.68,41.48c-.44,1.23-1.53,1.84-3.25,1.84s-2.77-.6-3.14-1.81l-12.79-41.49c-.08-.25-.12-.42-.12-.5Z"/>
      <path class="cls-2" d="M662.12,189.73c0-.83.31-1.53.94-2.12s1.39-.88,2.31-.88,1.62.29,2.25.88c.62.58.94,1.29.94,2.12s-.31,1.48-.94,2.06c-.62.58-1.37.88-2.25.88-.92,0-1.68-.29-2.31-.88-.62-.58-.94-1.27-.94-2.06Z"/>
    </g>
  </g>
</svg>