<?xml version="1.0" encoding="UTF-8"?>
<svg id="Horizontaal" xmlns="http://www.w3.org/2000/svg" viewBox="0 0 712.09 292.97">
  <defs>
    <style>
      .cls-1 {
        fill: #34b8e6;
      }

      .cls-2, .cls-3 {
        fill: #23b8df;
      }

      .cls-3 {
        font-family: Dosis-Medium, Dosis;
        font-size: 62.39px;
        font-weight: 500;
      }

      .cls-4 {
        letter-spacing: -.06em;
      }

      .cls-5 {
        letter-spacing: -.05em;
      }

      .cls-6 {
        letter-spacing: -.05em;
      }

      .cls-7 {
        letter-spacing: -.01em;
      }
    </style>
  </defs>
  <g id="Logo">
    <path id="Borstel_bolvorm" data-name="Borstel bolvorm" class="cls-1" d="M158.54,137.33c-18.93,0-36.72,16.34-36.72,35.27h73.43c0-18.93-17.79-35.27-36.72-35.27Z"/>
    <rect id="Borstelsteel" class="cls-1" x="152.1" y="89.59" width="14.31" height="43.47"/>
    <g id="Borstel">
      <path class="cls-2" d="M196.45,177.12s4.3,16.48,8.6,24.04c4.52,7.95,9.36,16.37,16.44,19.39l-12.52,8.03s-9.02-5.56-14.98-16.13-11.13-24.32-11.13-24.32c0,0-.16,15.74,4.29,23.84,3.31,6.02,11.97,19.61,11.97,19.61l-15.07,4.79s-6.28-9.54-10.25-19.31c-3.97-9.77-5.97-25.03-5.97-25.03,0,0-.33,15.35,0,24.6s2.23,20.86,2.23,20.86h-25.03s3.89-14.78,4.69-21.85c.79-7.07.08-23.34.08-23.34,0,0-1.11,12.22-4.77,21.52-3.6,9.17-10.17,21.93-10.17,21.93l-14.66-4s6.31-9.03,9.73-18.57,5.17-26.07,5.17-26.07c0,0-4.69,15.1-10.49,22.73-5.8,7.63-15.34,18.36-15.34,18.36l-12.4-7.31s15.11-13.91,18.12-20.9,6.83-22.85,6.83-22.85h74.62Z"/>
    </g>
    <path id="Zon_Rechts" data-name="Zon Rechts" class="cls-1" d="M116.42,174.87c.98-17.65,12.85-35.48,31.06-40.74v-44.25c-26.28,5.44-46.03,28.72-46.03,56.61,0,13.62,4.73,26.12,12.61,36,1.15-3.62,2.05-6.58,2.37-7.62Z"/>
    <path id="Zon_Links" data-name="Zon Links" class="cls-1" d="M200.65,174.46h.08s1.07,4.08,2.77,9.19c8.46-10.05,13.56-23.01,13.56-37.17,0-27.89-19.75-51.17-46.03-56.61v44.49c18.27,5.49,28.62,22.82,29.62,40.09Z"/>
    <g id="Straaltjes">
      <path id="Straaltje" class="cls-1" d="M158.54,30.78c-3.52,0-7.87,37.29-7.87,40.53,0,4.35,3.52,7.87,7.87,7.87s7.87-3.52,7.87-7.87c0-4.08-4.41-40.53-7.87-40.53Z"/>
      <path id="Straaltje-2" data-name="Straaltje" class="cls-1" d="M114.32,39.86c-3.25,1.35,7,37.46,8.24,40.46,1.66,4.01,6.27,5.92,10.28,4.26,4.01-1.66,5.92-6.27,4.26-10.28-1.56-3.77-19.58-35.76-22.78-34.43Z"/>
      <path id="Straaltje-3" data-name="Straaltje" class="cls-1" d="M76.93,65.17c-2.49,2.49,20.81,31.93,23.1,34.22,3.07,3.07,8.05,3.07,11.13,0,3.07-3.07,3.07-8.05,0-11.13-2.88-2.88-31.78-25.54-34.22-23.1Z"/>
      <path id="Straaltje-4" data-name="Straaltje" class="cls-1" d="M52.08,102.86c-1.35,3.25,31.44,21.54,34.43,22.78,4.01,1.66,8.62-.24,10.28-4.26,1.66-4.01-.24-8.62-4.26-10.28-3.77-1.56-39.13-11.44-40.46-8.24Z"/>
      <path id="Straaltje-5" data-name="Straaltje" class="cls-1" d="M43.54,147.2c0,3.52,37.29,7.87,40.53,7.87,4.35,0,7.87-3.52,7.87-7.87,0-4.35-3.52-7.87-7.87-7.87-4.08,0-40.53,4.41-40.53,7.87Z"/>
      <path id="Straaltje-6" data-name="Straaltje" class="cls-1" d="M52.62,191.42c1.35,3.25,37.46-7,40.46-8.24,4.01-1.66,5.92-6.27,4.26-10.28s-6.27-5.92-10.28-4.26c-3.77,1.56-35.76,19.58-34.43,22.78Z"/>
      <path id="Straaltje-7" data-name="Straaltje" class="cls-1" d="M266.43,190.11c1.35-3.25-31.44-21.54-34.43-22.78-4.01-1.66-8.62.24-10.28,4.26s.24,8.62,4.26,10.28c3.77,1.56,39.13,11.44,40.46,8.24Z"/>
      <path id="Straaltje-8" data-name="Straaltje" class="cls-1" d="M274.96,145.78c0-3.52-37.29-7.87-40.53-7.87-4.35,0-7.87,3.52-7.87,7.87s3.52,7.87,7.87,7.87c4.08,0,40.53-4.41,40.53-7.87Z"/>
      <path id="Straaltje-9" data-name="Straaltje" class="cls-1" d="M265.88,101.55c-1.35-3.25-37.46,7-40.46,8.24-4.01,1.66-5.92,6.27-4.26,10.28s6.27,5.92,10.28,4.26c3.77-1.56,35.76-19.58,34.43-22.78Z"/>
      <path id="Straaltje-10" data-name="Straaltje" class="cls-1" d="M240.57,64.17c-2.49-2.49-31.93,20.81-34.22,23.1-3.07,3.07-3.07,8.05,0,11.13,3.07,3.07,8.05,3.07,11.13,0,2.88-2.88,25.54-31.78,23.1-34.22Z"/>
      <path id="Straaltje-11" data-name="Straaltje" class="cls-1" d="M202.88,39.31c-3.25-1.35-21.54,31.44-22.78,34.43-1.66,4.01.24,8.62,4.26,10.28,4.01,1.66,8.62-.24,10.28-4.26,1.56-3.77,11.44-39.13,8.24-40.46Z"/>
      <path class="cls-1" d="M89.96,222.38s16.79-15.45,20.14-23.22c.58-1.35,1.19-3.01,1.8-4.81-3.09-2.82-7.88-2.75-10.86.24-2.88,2.88-25.54,31.78-23.1,34.22.99.99,6.2-2.08,12.28-6.28l-.26-.15Z"/>
      <path class="cls-1" d="M117.82,234.97c-2.19,9.25-3.75,18.04-2.19,18.69,1.65.68,7.15-7.39,12.34-15.92l-10.15-2.77Z"/>
      <path class="cls-1" d="M154.33,240.83c1.58,10.52,3.75,21.37,5.64,21.37s4.04-10.86,5.61-21.37h-11.24Z"/>
      <path class="cls-1" d="M192.23,237.87c5.09,8.28,10.37,15.9,11.96,15.24,1.55-.64.02-9.24-2.14-18.36l-9.82,3.12Z"/>
      <path class="cls-2" d="M218.48,193.58c-3.07-3.07-8.05-3.07-11.13,0-.2.2-.39.42-.57.64,1.03,2.39,2.15,4.58,3.36,6.26,3.21,4.48,6.14,9.76,9.53,14.1,9.23,6.97,20.43,14.71,21.91,13.23,2.49-2.49-20.81-31.93-23.1-34.22Z"/>
    </g>
    <text class="cls-3" transform="translate(312.2 192.29)"><tspan x="0" y="0">R</tspan><tspan class="cls-4" x="33.88" y="0">A</tspan><tspan class="cls-7" x="64.38" y="0">Y</tspan><tspan x="97.63" y="0">CLEAN C</tspan><tspan class="cls-6" x="308.18" y="0">.</tspan><tspan class="cls-5" x="316.23" y="0">V</tspan><tspan x="347.61" y="0">.</tspan></text>
  </g>
</svg>